<?xml version="1.0" standalone="no"?>
<!DOCTYPE svg PUBLIC "-//W3C//DTD SVG 20010904//EN"
 "http://www.w3.org/TR/2001/REC-SVG-20010904/DTD/svg10.dtd">
<svg version="1.0" xmlns="http://www.w3.org/2000/svg"
 width="400.000000pt" height="400.000000pt" viewBox="0 0 400.000000 400.000000"
 preserveAspectRatio="xMidYMid meet">
<metadata>
Created by potrace 1.11, written by Peter Selinger 2001-2013
</metadata>
<g transform="translate(0.000000,400.000000) scale(0.100000,-0.100000)"
fill="#000000" stroke="none">
<path d="M2265 3543 c-160 -16 -320 -86 -417 -184 -34 -34 -42 -37 -89 -36
-38 2 -54 -2 -63 -16 -10 -12 -21 -15 -43 -11 -47 9 -114 -27 -172 -93 -28
-32 -51 -62 -51 -67 0 -17 -83 -88 -120 -104 -19 -8 -54 -14 -77 -14 -53 1
-56 -16 -8 -45 11 -7 39 -24 62 -38 28 -17 68 -29 120 -36 67 -9 88 -8 152 9
72 19 74 19 92 1 11 -11 30 -19 44 -19 20 0 25 -5 25 -27 0 -14 -6 -34 -14
-42 -22 -24 -35 -117 -23 -157 16 -53 58 -86 116 -92 42 -4 50 -8 55 -28 4
-13 20 -39 37 -59 28 -31 29 -35 11 -35 -10 0 -49 -23 -86 -51 -50 -39 -78
-71 -115 -133 -47 -76 -174 -313 -187 -346 -30 -76 -53 -132 -104 -244 -11
-25 -20 -49 -20 -53 -1 -4 -22 -18 -48 -31 -89 -43 -192 -163 -187 -219 0 -10
13 -40 27 -66 15 -26 23 -47 18 -47 -11 0 -111 -65 -132 -86 -44 -43 -9 -70
133 -103 103 -24 132 -29 234 -38 103 -10 703 -10 775 -1 30 4 80 11 110 14
l55 6 -32 -34 c-30 -31 -41 -57 -28 -70 6 -5 81 6 105 16 9 4 30 -8 55 -32 54
-50 95 -77 126 -85 34 -9 38 -3 29 39 -9 40 -7 41 27 14 31 -24 68 -27 59 -5
-3 8 -9 22 -12 30 -5 13 -3 13 22 0 16 -8 38 -15 48 -15 19 0 18 1 -2 23 -22
23 -30 43 -13 33 5 -3 23 -3 40 0 25 5 29 9 20 20 -6 8 -16 14 -21 14 -5 0
-39 21 -76 48 l-67 47 5 87 c3 48 8 89 11 93 4 3 45 9 93 12 90 6 88 5 89 58
1 45 -14 156 -33 250 -12 55 -27 133 -35 173 -8 40 -18 80 -23 90 -5 9 -12 33
-16 52 -6 35 -6 35 62 69 37 19 79 43 95 53 15 11 27 16 27 11 0 -4 4 -3 8 3
11 18 92 51 142 58 24 4 62 15 85 25 42 19 105 76 105 94 0 15 51 67 65 67 15
0 75 63 75 79 0 8 -7 10 -22 6 -19 -6 -21 -5 -10 6 20 21 15 41 -8 34 -18 -6
-20 -3 -14 19 5 22 3 26 -14 26 -11 0 -22 6 -25 13 -4 14 -72 -1 -144 -34 -48
-22 -196 -118 -201 -131 -6 -12 -276 -88 -316 -88 -2 0 -11 20 -20 45 -10 24
-28 60 -41 80 l-24 35 44 44 c24 24 53 63 65 85 23 47 60 157 60 183 0 9 11
29 25 44 30 32 74 120 83 166 4 18 7 80 7 138 0 81 -4 116 -19 150 -30 71 -67
142 -95 179 -29 38 -123 111 -144 111 -7 0 -17 4 -22 8 -6 5 -46 19 -90 32
-75 22 -152 30 -220 23z m24 -1239 c8 -7 -31 -36 -54 -40 -20 -4 -27 1 -35 21
-6 15 -10 29 -10 31 0 5 92 -6 99 -12z"/>
<path d="M3592 1461 c-35 -37 -92 -90 -127 -117 -92 -69 -87 -88 33 -121 160
-43 157 -43 203 -15 52 31 72 47 114 92 118 125 124 170 26 186 -20 3 -45 10
-56 15 -20 9 -102 29 -120 28 -5 0 -38 -30 -73 -68z m136 3 c49 -11 122 -36
122 -41 0 -18 -83 -111 -123 -138 -8 -5 -26 -18 -41 -29 -26 -18 -29 -18 -109
-1 -106 23 -115 27 -85 47 45 31 135 114 162 152 11 16 25 25 34 21 7 -3 26
-8 40 -11z"/>
<path d="M477 800 c-14 -16 -28 -30 -32 -30 -10 0 -115 -108 -115 -118 0 -16
27 -20 144 -20 l110 0 50 56 c28 30 63 68 78 84 47 49 32 58 -97 58 l-113 0
-25 -30z m193 -21 c0 -4 -9 -11 -20 -14 -11 -3 -20 -9 -20 -13 0 -4 -14 -22
-31 -39 -29 -32 -33 -33 -109 -33 l-79 0 52 49 c29 26 58 50 66 53 24 7 141 5
141 -3z"/>
<path d="M774 788 c-54 -60 -104 -125 -104 -136 0 -18 30 -22 145 -22 79 0
118 4 125 13 30 34 100 154 97 167 -2 12 -24 16 -113 18 l-110 3 -40 -43z
m206 -6 c0 -3 -15 -27 -32 -53 -32 -47 -34 -47 -93 -51 -33 -2 -72 -2 -88 0
l-27 3 44 52 44 52 76 2 c42 1 76 -1 76 -5z"/>
<path d="M1081 801 c-12 -16 -21 -32 -21 -35 0 -3 -14 -28 -31 -57 -16 -28
-28 -58 -25 -65 4 -10 37 -12 141 -11 l137 2 25 70 c14 39 26 81 26 95 l2 25
-117 3 -116 3 -21 -30z m205 -24 c3 -3 1 -13 -5 -24 -6 -10 -15 -30 -21 -45
-9 -28 -10 -28 -106 -28 l-96 0 16 23 c9 12 24 36 32 53 l16 31 80 -2 c43 -1
81 -5 84 -8z"/>
<path d="M2283 815 c-3 -9 4 -42 16 -74 11 -32 21 -65 21 -74 0 -30 37 -38
163 -35 114 3 122 4 125 24 2 11 -18 55 -44 97 l-47 77 -114 0 c-93 0 -115 -3
-120 -15z m240 -75 c15 -26 27 -51 27 -54 0 -3 -42 -6 -93 -6 l-93 0 -16 50
c-10 31 -12 50 -6 52 6 2 43 4 82 5 l72 1 27 -48z"/>
<path d="M2584 815 c-7 -18 -9 -16 51 -107 l50 -77 122 0 c147 0 158 6 111 67
-18 23 -36 42 -40 42 -4 0 -8 5 -8 10 0 6 -14 26 -32 45 l-31 35 -109 0 c-86
0 -110 -3 -114 -15z m206 -34 c3 -1 24 -24 48 -51 l43 -50 -88 0 -88 0 -32 48
c-17 26 -29 50 -28 53 3 4 124 4 145 0z"/>
<path d="M2886 813 c-4 -11 3 -26 21 -44 15 -15 50 -52 77 -83 l49 -56 106 2
c58 1 116 4 129 6 40 8 38 10 -102 140 l-57 52 -108 0 c-93 0 -110 -3 -115
-17z m268 -82 l56 -56 -83 5 -82 5 -47 50 -47 51 74 0 74 1 55 -56z"/>
<path d="M213 542 c-33 -31 -80 -75 -104 -97 -27 -25 -43 -47 -41 -57 3 -16
18 -18 151 -18 l148 0 54 61 c30 34 69 78 87 98 55 60 46 66 -104 68 l-130 2
-61 -57z m247 5 c0 -5 -25 -37 -56 -72 l-56 -63 -106 -1 -107 -1 70 66 c39 37
80 69 93 73 33 9 162 8 162 -2z"/>
<path d="M640 592 c-17 -6 -36 -25 -100 -102 -25 -30 -53 -62 -62 -72 -10 -10
-15 -24 -12 -33 5 -12 30 -15 146 -15 139 0 139 0 164 28 15 15 33 40 41 56 8
16 28 47 44 69 28 39 37 66 22 68 -31 4 -231 5 -243 1z m173 -61 c-8 -13 -25
-40 -36 -60 -36 -61 -37 -62 -146 -59 l-100 3 35 40 c96 109 79 100 176 100
l87 0 -16 -24z"/>
<path d="M978 589 c-10 -6 -18 -14 -18 -18 0 -4 -23 -47 -50 -95 -28 -48 -48
-91 -45 -96 3 -5 71 -9 150 -9 165 0 147 -10 192 108 14 36 26 77 27 90 l1 25
-120 2 c-66 2 -128 -2 -137 -7z m201 -44 c1 -5 -8 -38 -20 -72 l-24 -62 -109
0 -108 -1 15 23 c9 12 27 45 40 72 l24 50 89 0 c50 0 91 -4 93 -10z"/>
<path d="M2733 585 c-11 -8 -8 -17 14 -50 14 -22 30 -41 35 -43 4 -2 8 -9 9
-15 0 -7 15 -32 33 -57 l33 -45 145 -3 c165 -3 175 2 126 59 -16 19 -44 51
-61 73 -18 21 -45 51 -60 67 l-28 29 -116 -2 c-64 -2 -122 -7 -130 -13z m291
-97 c31 -36 56 -68 56 -71 0 -4 -45 -6 -100 -6 l-99 0 -45 67 -45 67 27 5 c15
3 55 5 89 5 l61 -1 56 -66z"/>
<path d="M3080 583 c0 -16 10 -30 85 -118 75 -88 79 -89 153 -95 82 -6 227 2
239 13 4 5 -42 55 -102 113 l-110 104 -132 -1 c-110 -1 -133 -4 -133 -16z
m285 -63 c21 -19 57 -52 80 -72 l40 -37 -106 -1 -107 0 -56 62 c-31 34 -56 66
-56 69 0 11 25 14 99 14 61 0 69 -3 106 -35z"/>
</g>
</svg>
